<svg xmlns="http://www.w3.org/2000/svg" viewBox="0 0 900 1100"><rect width="900" height="1100" fill="#100705"/><rect x="82" y="82" width="736" height="936" rx="26" fill="#fdf5ea"/><g transform="translate(100 120)"><path d="M160 390h520v410H160z" fill="#150b09" stroke="#d9aa55" stroke-width="10"/><path d="M125 320h590v95H125z" fill="#c76f5c"/><path d="M380 320h82v480h-82z" fill="#f5cf82"/><path d="M421 265c-65-95-150-52-101 38 28 53 101 74 101 74s73-21 101-74c49-90-36-133-101-38z" fill="#f0b7aa" stroke="#d9aa55" stroke-width="7"/><path d="M240 205h360" stroke="#d9aa55" stroke-width="6"/><circle cx="240" cy="205" r="18" fill="#c76f5c"/><circle cx="420" cy="175" r="18" fill="#f5cf82"/><circle cx="600" cy="205" r="18" fill="#c76f5c"/></g></svg>
