<svg xmlns="http://www.w3.org/2000/svg" viewBox="0 0 800 1000" preserveAspectRatio="xMidYMid slice">
  <defs>
    <linearGradient id="bg" x1="0" y1="0" x2="0" y2="1"><stop offset="0" stop-color="#1a1208"/><stop offset="1" stop-color="#0a0604"/></linearGradient>
    <radialGradient id="glow" cx="50%" cy="35%" r="55%"><stop offset="0" stop-color="#e9c66f" stop-opacity=".26"/><stop offset="1" stop-color="#e9c66f" stop-opacity="0"/></radialGradient>
    <linearGradient id="wrap" x1="0" y1="0" x2="0" y2="1"><stop offset="0" stop-color="#3a2a14"/><stop offset="1" stop-color="#1a1208"/></linearGradient>
    <linearGradient id="ribbon" x1="0" y1="0" x2="1" y2="0"><stop offset="0" stop-color="#c08a3a"/><stop offset=".5" stop-color="#f1d187"/><stop offset="1" stop-color="#c08a3a"/></linearGradient>
    <radialGradient id="choco" cx="35%" cy="35%" r="70%"><stop offset="0" stop-color="#8b5a2b"/><stop offset=".6" stop-color="#5b3818"/><stop offset="1" stop-color="#2a1808"/></radialGradient>
  </defs>
  <rect width="800" height="1000" fill="url(#bg)"/>
  <rect width="800" height="1000" fill="url(#glow)"/>
  <g transform="translate(400 700)">
    <ellipse cx="0" cy="120" rx="270" ry="30" fill="#000" opacity=".5"/>
    <path d="M -240 0 Q -260 80 -180 100 L 180 100 Q 260 80 240 0 Z" fill="url(#wrap)"/>
    <ellipse cx="0" cy="0" rx="240" ry="60" fill="#2a1c10"/>
    <g>
      <g transform="translate(-130 -20)"><circle r="42" fill="url(#choco)"/><circle r="22" fill="none" stroke="#c08a3a" stroke-width="2" opacity=".5"/></g>
      <g transform="translate(-55 -10)"><circle r="48" fill="url(#choco)"/><rect x="-30" y="-30" width="60" height="60" rx="6" fill="none" stroke="#c08a3a" stroke-width="2" opacity=".5"/></g>
      <g transform="translate(25 -25)"><circle r="50" fill="url(#choco)"/><path d="M -35 0 L 35 0 M 0 -35 L 0 35" stroke="#c08a3a" stroke-width="2" opacity=".5"/></g>
      <g transform="translate(100 -10)"><circle r="46" fill="url(#choco)"/><rect x="-28" y="-28" width="56" height="56" rx="4" fill="none" stroke="#c08a3a" stroke-width="2" opacity=".5"/></g>
      <g transform="translate(165 -25)"><circle r="40" fill="url(#choco)"/><circle r="20" fill="none" stroke="#c08a3a" stroke-width="2" opacity=".5"/></g>
    </g>
    <rect x="-8" y="-30" width="16" height="130" fill="url(#ribbon)"/>
    <g transform="translate(0 -40)">
      <path d="M 0 0 C -30 -50 -100 -40 -80 0 C -50 25 0 25 0 25 C 0 25 50 25 80 0 C 100 -40 30 -50 0 0 Z" fill="url(#ribbon)"/>
      <circle r="10" fill="#1a1208" stroke="url(#ribbon)" stroke-width="4"/>
    </g>
  </g>
</svg>