<svg xmlns="http://www.w3.org/2000/svg" viewBox="0 0 800 600" preserveAspectRatio="xMidYMid slice">
  <defs>
    <linearGradient id="bg" x1="0" y1="0" x2="0" y2="1"><stop offset="0" stop-color="#1a1208"/><stop offset="1" stop-color="#0a0604"/></linearGradient>
    <radialGradient id="glow" cx="50%" cy="40%" r="60%"><stop offset="0" stop-color="#d4af63" stop-opacity=".3"/><stop offset="1" stop-color="#d4af63" stop-opacity="0"/></radialGradient>
    <linearGradient id="boxG" x1="0" y1="0" x2="0" y2="1"><stop offset="0" stop-color="#3a2814"/><stop offset="1" stop-color="#1a1208"/></linearGradient>
    <linearGradient id="ribbon" x1="0" y1="0" x2="1" y2="0"><stop offset="0" stop-color="#b88a3a"/><stop offset=".5" stop-color="#f1d187"/><stop offset="1" stop-color="#b88a3a"/></linearGradient>
  </defs>
  <rect width="800" height="600" fill="url(#bg)"/>
  <rect width="800" height="600" fill="url(#glow)"/>
  <g transform="translate(400 300)">
    <rect x="-180" y="-110" width="360" height="280" rx="14" fill="url(#boxG)" stroke="#5a3814" stroke-width="2"/>
    <rect x="-200" y="-140" width="400" height="50" rx="4" fill="#0e0804" stroke="#5a3814" stroke-width="2"/>
    <rect x="-10" y="-140" width="20" height="280" fill="url(#ribbon)"/>
    <rect x="-180" y="-12" width="360" height="20" fill="url(#ribbon)"/>
    <text x="0" y="70" text-anchor="middle" font-family="Georgia, serif" font-size="44" fill="url(#ribbon)" font-style="italic">A</text>
    <g transform="translate(0 -170)">
      <path d="M 0 0 C -36 -70 -140 -70 -110 0 C -82 26 0 26 0 26 C 0 26 82 26 110 0 C 140 -70 36 -70 0 0 Z" fill="url(#ribbon)"/>
      <circle r="12" fill="#0e0804" stroke="url(#ribbon)" stroke-width="5"/>
    </g>
  </g>
</svg>