<svg xmlns="http://www.w3.org/2000/svg" viewBox="0 0 1400 1000" role="img" aria-label="Premium wrapped gifts and bouquet arrangement">
  <defs>
    <radialGradient id="glow" cx="50%" cy="42%" r="60%"><stop offset="0" stop-color="#7a3f28"/><stop offset=".42" stop-color="#20100c"/><stop offset="1" stop-color="#070504"/></radialGradient>
    <linearGradient id="gold" x1="0" x2="1"><stop stop-color="#9d6420"/><stop offset=".35" stop-color="#f8dda0"/><stop offset=".68" stop-color="#c8862d"/><stop offset="1" stop-color="#6d3d12"/></linearGradient>
    <linearGradient id="rose" x1="0" y1="0" x2="1" y2="1"><stop stop-color="#ffd2c3"/><stop offset=".55" stop-color="#c46b58"/><stop offset="1" stop-color="#7c2f28"/></linearGradient>
    <filter id="shadow" x="-30%" y="-30%" width="160%" height="160%"><feDropShadow dx="0" dy="24" stdDeviation="28" flood-color="#000" flood-opacity=".5"/></filter>
  </defs>
  <rect width="1400" height="1000" fill="url(#glow)"/>
  <circle cx="1020" cy="230" r="255" fill="none" stroke="url(#gold)" stroke-width="2" opacity=".32"/>
  <circle cx="350" cy="740" r="310" fill="none" stroke="#f4c36b" stroke-width="1" opacity=".14"/>
  <g filter="url(#shadow)">
    <path d="M425 570c-30-152 42-295 177-352 88 108 80 252-24 349z" fill="url(#rose)"/>
    <path d="M565 558c-18-137 50-255 168-299 68 100 52 224-42 305z" fill="#f4c36b"/>
    <path d="M693 585c19-143 116-244 242-256 40 115-7 230-123 289z" fill="url(#rose)"/>
    <path d="M524 608h438v222H524z" fill="#100907" stroke="url(#gold)" stroke-width="8"/>
    <path d="M498 580h492v74H498z" fill="url(#gold)"/>
    <path d="M704 580h80v250h-80z" fill="url(#rose)"/>
    <path d="M496 690h494" stroke="#f8dda0" stroke-width="5" opacity=".75"/>
    <path d="M745 574c-77-80-141-112-240-116 109-26 204-10 278 90 74-100 169-116 278-90-99 4-163 36-240 116z" fill="none" stroke="url(#gold)" stroke-width="18"/>
  </g>
  <g opacity=".72">
    <circle cx="310" cy="198" r="4" fill="#f8dda0"/><circle cx="1130" cy="725" r="4" fill="#f8dda0"/><circle cx="1092" cy="160" r="3" fill="#ffd2c3"/>
  </g>
</svg>
